# xmcd CD database file
#
# Track frame offsets:
#	150
#	29145
#	51179
#	71652
#	97453
#	123547
#	141696
#	163979
#	183303
#	200323
#
# Disc length: 2940 seconds
#
# Revision: 0
# Processed by: cddbd v1.5.2PL0 Copyright (c) Steve Scherf et al.
# Submitted via: CDex 1.70
#
DISCID=a70b7a0a
DTITLE=Rahet Fateh Ali Khan - Back2Love 
DYEAR=2014
DGENRE=Country
TTITLE0=01 Rab Jaane
TTITLE1=02 Habibi - feat. Salim Sulaiman
TTITLE2=03 Rim Jhim - feat. Shreya Ghoshal
TTITLE3=04 Zaroori Tha
TTITLE4=05 Nach Dumadum
TTITLE5=06 Sab Jhoote
TTITLE6=07 Dil ke Taar
TTITLE7=08 Sharab-e-Husn
TTITLE8=09 Aag Lagi
TTITLE9=10 Fusion  in Raag Champa Kali
EXTD=YEAR: 2014
EXTT0=
EXTT1=
EXTT2=
EXTT3=
EXTT4=
EXTT5=
EXTT6=
EXTT7=
EXTT8=
EXTT9=
PLAYORDER=
